<svg width="32" height="32" viewBox="0 0 32 32" fill="none" xmlns="http://www.w3.org/2000/svg">
<path d="M6.66667 28C5.93333 28 5.30533 27.7391 4.78267 27.2173C4.26089 26.6947 4 26.0667 4 25.3333V6.66667C4 5.93333 4.26089 5.30533 4.78267 4.78267C5.30533 4.26089 5.93333 4 6.66667 4H25.3333C26.0667 4 26.6947 4.26089 27.2173 4.78267C27.7391 5.30533 28 5.93333 28 6.66667V25.3333C28 26.0667 27.7391 26.6947 27.2173 27.2173C26.6947 27.7391 26.0667 28 25.3333 28H6.66667ZM6.66667 25.3333H25.3333V6.66667H6.66667V25.3333ZM10.6667 22.6667C11.0444 22.6667 11.3613 22.5387 11.6173 22.2827C11.8724 22.0276 12 21.7111 12 21.3333V17.3333C12 16.9556 11.8724 16.6387 11.6173 16.3827C11.3613 16.1276 11.0444 16 10.6667 16C10.2889 16 9.972 16.1276 9.716 16.3827C9.46089 16.6387 9.33333 16.9556 9.33333 17.3333V21.3333C9.33333 21.7111 9.46089 22.0276 9.716 22.2827C9.972 22.5387 10.2889 22.6667 10.6667 22.6667ZM21.3333 22.6667C21.7111 22.6667 22.0276 22.5387 22.2827 22.2827C22.5387 22.0276 22.6667 21.7111 22.6667 21.3333V10.6667C22.6667 10.2889 22.5387 9.972 22.2827 9.716C22.0276 9.46089 21.7111 9.33333 21.3333 9.33333C20.9556 9.33333 20.6391 9.46089 20.384 9.716C20.128 9.972 20 10.2889 20 10.6667V21.3333C20 21.7111 20.128 22.0276 20.384 22.2827C20.6391 22.5387 20.9556 22.6667 21.3333 22.6667ZM16 22.6667C16.3778 22.6667 16.6947 22.5387 16.9507 22.2827C17.2058 22.0276 17.3333 21.7111 17.3333 21.3333V20C17.3333 19.6222 17.2058 19.3053 16.9507 19.0493C16.6947 18.7942 16.3778 18.6667 16 18.6667C15.6222 18.6667 15.3058 18.7942 15.0507 19.0493C14.7947 19.3053 14.6667 19.6222 14.6667 20V21.3333C14.6667 21.7111 14.7947 22.0276 15.0507 22.2827C15.3058 22.5387 15.6222 22.6667 16 22.6667ZM16 16C16.3778 16 16.6947 15.872 16.9507 15.616C17.2058 15.3609 17.3333 15.0444 17.3333 14.6667C17.3333 14.2889 17.2058 13.972 16.9507 13.716C16.6947 13.4609 16.3778 13.3333 16 13.3333C15.6222 13.3333 15.3058 13.4609 15.0507 13.716C14.7947 13.972 14.6667 14.2889 14.6667 14.6667C14.6667 15.0444 14.7947 15.3609 15.0507 15.616C15.3058 15.872 15.6222 16 16 16Z" fill="currentColor"/>
</svg>
