<svg width="24" height="24" viewBox="0 0 24 24" fill="none" xmlns="http://www.w3.org/2000/svg">
<path d="M9.60039 4.7999C9.60039 4.16338 9.85325 3.55293 10.3033 3.10285C10.7534 2.65276 11.3639 2.3999 12.0004 2.3999C12.6369 2.3999 13.2474 2.65276 13.6974 3.10285C14.1475 3.55293 14.4004 4.16338 14.4004 4.7999V19.1999C14.4004 19.8364 14.1475 20.4469 13.6974 20.897C13.2474 21.347 12.6369 21.5999 12.0004 21.5999C11.3639 21.5999 10.7534 21.347 10.3033 20.897C9.85325 20.4469 9.60039 19.8364 9.60039 19.1999V4.7999ZM12.0004 3.5999C11.6821 3.5999 11.3769 3.72633 11.1519 3.95137C10.9268 4.17642 10.8004 4.48164 10.8004 4.7999V19.1999C10.8004 19.5182 10.9268 19.8234 11.1519 20.0484C11.3769 20.2735 11.6821 20.3999 12.0004 20.3999C12.3187 20.3999 12.6239 20.2735 12.8489 20.0484C13.074 19.8234 13.2004 19.5182 13.2004 19.1999V4.7999C13.2004 4.48164 13.074 4.17642 12.8489 3.95137C12.6239 3.72633 12.3187 3.5999 12.0004 3.5999ZM2.40039 14.3999C2.40039 13.7634 2.65325 13.1529 3.10333 12.7028C3.55342 12.2528 4.16387 11.9999 4.80039 11.9999C5.43691 11.9999 6.04736 12.2528 6.49745 12.7028C6.94753 13.1529 7.20039 13.7634 7.20039 14.3999V19.1999C7.20039 19.8364 6.94753 20.4469 6.49745 20.897C6.04736 21.347 5.43691 21.5999 4.80039 21.5999C4.16387 21.5999 3.55342 21.347 3.10333 20.897C2.65325 20.4469 2.40039 19.8364 2.40039 19.1999V14.3999ZM4.80039 13.1999C4.48213 13.1999 4.17691 13.3263 3.95186 13.5514C3.72682 13.7764 3.60039 14.0816 3.60039 14.3999V19.1999C3.60039 19.5182 3.72682 19.8234 3.95186 20.0484C4.17691 20.2735 4.48213 20.3999 4.80039 20.3999C5.11865 20.3999 5.42388 20.2735 5.64892 20.0484C5.87396 19.8234 6.00039 19.5182 6.00039 19.1999V14.3999C6.00039 14.0816 5.87396 13.7764 5.64892 13.5514C5.42388 13.3263 5.11865 13.1999 4.80039 13.1999ZM19.2004 7.1999C18.5639 7.1999 17.9534 7.45276 17.5033 7.90285C17.0532 8.35293 16.8004 8.96338 16.8004 9.5999V19.1999C16.8004 19.8364 17.0532 20.4469 17.5033 20.897C17.9534 21.347 18.5639 21.5999 19.2004 21.5999C19.8369 21.5999 20.4474 21.347 20.8974 20.897C21.3475 20.4469 21.6004 19.8364 21.6004 19.1999V9.5999C21.6004 8.96338 21.3475 8.35293 20.8974 7.90285C20.4474 7.45276 19.8369 7.1999 19.2004 7.1999ZM18.0004 9.5999C18.0004 9.28164 18.1268 8.97642 18.3519 8.75137C18.5769 8.52633 18.8821 8.3999 19.2004 8.3999C19.5187 8.3999 19.8239 8.52633 20.0489 8.75137C20.274 8.97642 20.4004 9.28164 20.4004 9.5999V19.1999C20.4004 19.5182 20.274 19.8234 20.0489 20.0484C19.8239 20.2735 19.5187 20.3999 19.2004 20.3999C18.8821 20.3999 18.5769 20.2735 18.3519 20.0484C18.1268 19.8234 18.0004 19.5182 18.0004 19.1999V9.5999Z" fill="#9462E0"/>
</svg>
