<svg width="24" height="24" viewBox="0 0 24 24" fill="none" xmlns="http://www.w3.org/2000/svg">
<path d="M12 22.0078C10.625 22.0078 9.4375 21.5234 8.4375 20.5547C7.46875 19.5547 6.98438 18.3672 6.98438 16.9922V4.99219H8.01562V16.9922C8.01562 18.1172 8.40625 19.0703 9.1875 19.8516C9.96875 20.6328 10.9062 21.0234 12 21.0234C13.0938 21.0234 14.0312 20.6328 14.8125 19.8516C15.5938 19.0703 15.9844 18.1172 15.9844 16.9922V5.50781C15.9844 4.82031 15.7344 4.24219 15.2344 3.77344C14.7656 3.27344 14.1875 3.02344 13.5 3.02344C12.8125 3.02344 12.2188 3.27344 11.7188 3.77344C11.25 4.24219 11.0156 4.82031 11.0156 5.50781V15.0234C11.0156 15.2734 11.1094 15.5078 11.2969 15.7266C11.4844 15.9141 11.7188 16.0078 12 16.0078C12.2812 16.0078 12.5156 15.9141 12.7031 15.7266C12.8906 15.5078 12.9844 15.2734 12.9844 15.0234V7.99219H14.0156V15.0234C14.0156 15.5547 13.8125 16.0234 13.4062 16.4297C13.0312 16.8047 12.5625 16.9922 12 16.9922C11.4375 16.9922 10.9531 16.8047 10.5469 16.4297C10.1719 16.0234 9.98438 15.5547 9.98438 15.0234V5.50781C9.98438 4.53906 10.3281 3.71094 11.0156 3.02344C11.7031 2.33594 12.5312 1.99219 13.5 1.99219C14.4688 1.99219 15.2969 2.33594 15.9844 3.02344C16.6719 3.71094 17.0156 4.53906 17.0156 5.50781V16.9922C17.0156 18.3672 16.5156 19.5547 15.5156 20.5547C14.5469 21.5234 13.375 22.0078 12 22.0078Z" fill="#9462E0"/>
</svg>
