<svg width="28" height="28" viewBox="0 0 28 28" fill="none" xmlns="http://www.w3.org/2000/svg">
<path d="M19.3438 19.6562C19.4375 19.75 19.4844 19.875 19.4844 20.0312C19.4844 20.1562 19.4375 20.2656 19.3438 20.3594C19.3125 20.3906 19.2656 20.4219 19.2031 20.4531C19.1406 20.4844 19.0781 20.5 19.0156 20.5C18.9531 20.5 18.8906 20.4844 18.8281 20.4531C18.7969 20.4219 18.7656 20.4062 18.7344 20.4062C18.7031 20.375 18.6719 20.3594 18.6406 20.3594L14 15.7188L9.35938 20.3594H9.3125L9.26562 20.4062C9.23438 20.4062 9.21875 20.4219 9.21875 20.4531C9.1875 20.4531 9.17188 20.4531 9.17188 20.4531C9.10938 20.4844 9.04688 20.5 8.98438 20.5C8.92188 20.5 8.85938 20.4844 8.79688 20.4531C8.73438 20.4219 8.6875 20.3906 8.65625 20.3594C8.5625 20.2656 8.51562 20.1562 8.51562 20.0312C8.51562 19.875 8.5625 19.75 8.65625 19.6562L13.2969 15.0156L8.65625 10.375C8.5625 10.25 8.51562 10.125 8.51562 10C8.51562 9.875 8.5625 9.75 8.65625 9.625C8.75 9.53125 8.85938 9.48438 8.98438 9.48438C9.14062 9.48438 9.26562 9.53125 9.35938 9.625L14 14.3125L18.6406 9.625C18.7344 9.53125 18.8438 9.48438 18.9688 9.48438C19.125 9.48438 19.25 9.53125 19.3438 9.625C19.4375 9.75 19.4844 9.875 19.4844 10C19.4844 10.125 19.4375 10.25 19.3438 10.375L14.7031 15.0156L19.3438 19.6562Z" fill="#333333"/>
</svg>
