<svg width="32" height="32" viewBox="0 0 32 32" fill="none" xmlns="http://www.w3.org/2000/svg">
<path d="M7.05524 26.0628H11.5276V17.1181H20.4724V26.0628H24.9447V12.6457L16 5.93715L7.05524 12.6457V26.0628ZM7.05524 29.0444C6.2353 29.0444 5.53364 28.7527 4.95024 28.1693C4.36585 27.5849 4.07365 26.8828 4.07365 26.0628V12.6457C4.07365 12.1736 4.1795 11.7264 4.39119 11.304C4.60189 10.8816 4.89359 10.5338 5.26629 10.2604L14.211 3.55188C14.4844 3.35311 14.7701 3.20403 15.0682 3.10465C15.3664 3.00526 15.677 2.95557 16 2.95557C16.323 2.95557 16.6336 3.00526 16.9317 3.10465C17.2299 3.20403 17.5156 3.35311 17.7889 3.55188L26.7337 10.2604C27.1064 10.5338 27.3986 10.8816 27.6103 11.304C27.821 11.7264 27.9263 12.1736 27.9263 12.6457V26.0628C27.9263 26.8828 27.6346 27.5849 27.0512 28.1693C26.4668 28.7527 25.7647 29.0444 24.9447 29.0444H17.4908V20.0997H14.5092V29.0444H7.05524Z" fill="currentColor"/>
</svg>
