<svg width="32" height="32" viewBox="0 0 32 32" fill="none" xmlns="http://www.w3.org/2000/svg">
<path d="M5.53374 8.15037H2.91718V26.4663C2.91718 27.9054 4.09463 29.0829 5.53374 29.0829H23.8497V26.4663H5.53374V8.15037ZM26.4663 2.91724H10.7669C9.32776 2.91724 8.15031 4.09469 8.15031 5.5338V21.2332C8.15031 22.6723 9.32776 23.8498 10.7669 23.8498H26.4663C27.9054 23.8498 29.0828 22.6723 29.0828 21.2332V5.5338C29.0828 4.09469 27.9054 2.91724 26.4663 2.91724ZM26.4663 21.2332H10.7669V5.5338H26.4663V21.2332ZM13.3834 12.0752H23.8497V14.6918H13.3834V12.0752ZM13.3834 16.0001H18.6166V18.6166H13.3834V16.0001ZM13.3834 8.15037H23.8497V10.7669H13.3834V8.15037Z" fill="currentColor"/>
</svg>
