<svg width="24" height="24" viewBox="0 0 24 24" fill="none" xmlns="http://www.w3.org/2000/svg">
<path fill-rule="evenodd" clip-rule="evenodd" d="M15.6293 14.5752C16.5583 13.3775 16.9962 11.8707 16.8538 10.3616C16.7113 8.85238 15.9993 7.45416 14.8626 6.45134C13.7258 5.44851 12.2497 4.91642 10.7346 4.9633C9.21942 5.01019 7.77904 5.63253 6.70646 6.70372C5.63295 7.77565 5.00857 9.21659 4.96057 10.7329C4.91256 12.2492 5.44454 13.7267 6.4481 14.8644C7.45165 16.0021 8.85126 16.7143 10.3617 16.8559C11.8721 16.9975 13.3797 16.5579 14.5772 15.6265L14.6093 15.6601L17.7698 18.8213C17.839 18.8906 17.9212 18.9455 18.0117 18.9829C18.1021 19.0204 18.199 19.0397 18.2969 19.0397C18.3948 19.0397 18.4918 19.0204 18.5822 18.9829C18.6727 18.9455 18.7548 18.8906 18.8241 18.8213C18.8933 18.7521 18.9482 18.6699 18.9857 18.5795C19.0231 18.489 19.0424 18.3921 19.0424 18.2942C19.0424 18.1963 19.0231 18.0994 18.9857 18.0089C18.9482 17.9185 18.8933 17.8363 18.8241 17.7671L15.6628 14.6065C15.6519 14.5958 15.6407 14.5854 15.6293 14.5752ZM14.0825 7.75798C14.5032 8.17184 14.8377 8.6649 15.0669 9.2087C15.296 9.75251 15.4153 10.3363 15.4177 10.9264C15.4201 11.5165 15.3056 12.1013 15.0809 12.6469C14.8562 13.1926 14.5256 13.6884 14.1084 14.1056C13.6911 14.5229 13.1953 14.8534 12.6497 15.0782C12.104 15.3029 11.5193 15.4173 10.9292 15.4149C10.339 15.4125 9.75525 15.2933 9.21144 15.0642C8.66764 14.835 8.17458 14.5004 7.76072 14.0798C6.93364 13.2391 6.47226 12.1057 6.47706 10.9264C6.48186 9.74713 6.95246 8.61751 7.78636 7.78361C8.62025 6.94972 9.74987 6.47912 10.9292 6.47432C12.1085 6.46952 13.2419 6.9309 14.0825 7.75798Z" fill="#9462E0"/>
</svg>
